<svg xmlns="http://www.w3.org/2000/svg" width="160" height="78"><g fill="#000000"><rect width="40" height="15"/><rect width="40" height="15" x="40"/><rect width="40" height="15" x="80"/><rect width="40" height="15" x="120"/><rect width="40" height="15" y="15"/><rect width="40" height="15" x="40" y="15"/><rect width="40" height="15" fill="#d11b7a" x="80" y="15"/><rect width="40" height="15" x="120" y="15"/><rect width="40" height="15" y="30"/><rect width="40" height="15" x="40" y="30"/><rect width="40" height="15" x="80" y="30"/><rect width="40" height="15" x="120" y="30"/><rect width="40" height="15" y="45"/><rect width="40" height="15" x="40" y="45"/><rect width="40" height="15" x="80" y="45"/><rect width="40" height="15" x="120" y="45"/><rect width="40" height="15" fill="#d11b7a" y="60"/><rect width="40" height="15" x="40" y="60"/><rect width="40" height="15" x="80" y="60"/><rect width="40" height="15" fill="#d11b7a" x="120" y="60"/></g></svg>